<svg xmlns="http://www.w3.org/2000/svg" width="154" height="154" viewBox="0 0 154 154">
  <g id="Grupo_1195285" data-name="Grupo 1195285" transform="translate(-320.941 -3259.946)">
    <g id="Grupo_1194692" data-name="Grupo 1194692" transform="translate(10.883 -4111.054)">
      <circle id="Elipse_13624" data-name="Elipse 13624" cx="77" cy="77" r="77" transform="translate(310.059 7371)" fill="#fff"/>
    </g>
    <g id="Grupo_1194972" data-name="Grupo 1194972" transform="translate(350.285 3289.286)">
      <g id="Grupo_1194970" data-name="Grupo 1194970" transform="translate(1.396 1.401)">
        <path id="Trazado_1014978" data-name="Trazado 1014978" d="M106.52,46.338a15.545,15.545,0,0,0-9.984-14.515.742.742,0,0,1-.468-.816,15.359,15.359,0,0,0-22-16.3.743.743,0,0,1-.955-.257,15.356,15.356,0,0,0-25.694,0,.743.743,0,0,1-.955.257,15.266,15.266,0,0,0-5.872-1.586,11.676,11.676,0,0,1-1.733.335c-7.864.37-12.936,6.657-13.306,14.521a15.417,15.417,0,0,0,.2,3.29.742.742,0,0,1-.468.816,14.67,14.67,0,0,0-9.787,13.982A15.575,15.575,0,0,0,25.677,60.644a.742.742,0,0,1,.483.741l-.06,1A14.181,14.181,0,0,0,43.989,76.8,13.952,13.952,0,0,0,51.5,71.614c4.311,4.96,13.232,5.024,17.614.121,8.427,10.926,27.108,4.982,26.6-9.076l-.059-1a.742.742,0,0,1,.483-.741A15.727,15.727,0,0,0,106.52,46.338Z" transform="translate(-14.002 -7.505)" fill="#c1c5cb"/>
        <path id="Trazado_1014979" data-name="Trazado 1014979" d="M37.488,101.206c-8.913,2.556-19.762-3.422-19.377-14.137l.06-1a.743.743,0,0,0-.482-.741,15.534,15.534,0,0,1-.2-29.094.744.744,0,0,0,.467-.815,15.359,15.359,0,0,1,14.406-17.9,14.8,14.8,0,0,1,1.726.015,15.361,15.361,0,0,0-10.92,17.327.744.744,0,0,1-.467.815,15.534,15.534,0,0,0,.2,29.094.743.743,0,0,1,.482.741l-.06,1c-.313,8.675,6.739,14.244,14.164,14.695Z" transform="translate(-7.5 -31.914)" fill="#334155"/>
        <path id="Trazado_1014980" data-name="Trazado 1014980" d="M64.216,156.1l2.659,5.388a.675.675,0,0,0,.508.369l5.946.864a.675.675,0,0,1,.374,1.151l-4.3,4.194a.676.676,0,0,0-.194.6l.338,1.97.131,3.191a.675.675,0,0,1-.979.711l-4.737-2.313a.675.675,0,0,0-.628,0l-5,2.55a.675.675,0,0,1-.979-.711l1.03-5.593a.675.675,0,0,0-.194-.6l-4.21-3.918a.675.675,0,0,1,.374-1.151l2.881-.567,2.6-.378a.675.675,0,0,0,.508-.369l2.659-5.388A.675.675,0,0,1,64.216,156.1Z" transform="translate(-45.159 -128.136)" fill="#fce2b5"/>
        <path id="Trazado_1014981" data-name="Trazado 1014981" d="M67.232,203.775l-5.32-2.8a.668.668,0,0,0-.627,0l-5.318,2.8a.675.675,0,0,1-.979-.713L56,197.14a.673.673,0,0,0-.2-.6l-4.3-4.194a.674.674,0,0,1,.374-1.15l3.341-.486a9.177,9.177,0,0,0,12.311,8.4l.679,3.952A.676.676,0,0,1,67.232,203.775Z" transform="translate(-43.147 -156.607)" fill="#ffd05b"/>
        <path id="Trazado_1014982" data-name="Trazado 1014982" d="M379.338,177.63a5.771,5.771,0,0,0-5.659-5.886,5.664,5.664,0,0,0-4.2,1.856.372.372,0,0,1-.551,0,5.6,5.6,0,0,0-4.185-1.832q-.216,0-.429.02s-.741.175-1.1.283c-2.343.7-3.531,2.754-3.581,5.35-.12,6.131,8.052,10.5,9.391,11.177a.367.367,0,0,0,.34,0c.4-.208,2.726-1.222,2.726-1.222C375.065,185.366,379.281,181.793,379.338,177.63Z" transform="translate(-294.08 -141.17)" fill="#f59e0b"/>
        <path id="Trazado_1014983" data-name="Trazado 1014983" d="M369.544,187.562a30.107,30.107,0,0,1-2.717,1.641.367.367,0,0,1-.341,0c-1.338-.681-10.1-5.378-9.982-11.51a5.848,5.848,0,0,1,5.264-5.718,5.9,5.9,0,0,0-1.913,4.229C359.742,181.993,367.543,186.5,369.544,187.562Z" transform="translate(-291.535 -141.359)" fill="#fce2b5"/>
        <path id="Trazado_1014984" data-name="Trazado 1014984" d="M221.873,63.209a10.705,10.705,0,0,0-16.666-8.891s-.387.366-.614.547a10.3,10.3,0,0,0-3.677,8.331c0,5.912,4.244,9.847,10.155,9.847,2.746,0,5.306-.344,7.2-2.044.448-.4,1.281-1.134,1.281-1.134a10.659,10.659,0,0,0,2.321-6.657Z" transform="translate(-164.91 -44.128)" fill="#c0f1e1"/>
        <path id="Trazado_1014985" data-name="Trazado 1014985" d="M217.586,77.793a10.7,10.7,0,1,1-14.345-15.548,10.7,10.7,0,0,0,14.345,15.548Z" transform="translate(-162.945 -52.055)" fill="#b3e59f"/>
        <g id="Grupo_1194969" data-name="Grupo 1194969" transform="translate(24.958 36.114)">
          <path id="Trazado_1014986" data-name="Trazado 1014986" d="M184.938,436.48a.745.745,0,0,0,.745-.745v-3.9a5.584,5.584,0,0,0-2.965-4.932L170.54,420.92l-11.787.23L146.586,427.4a5.584,5.584,0,0,0-2.984,4.942l-.176,2.99a.745.745,0,0,0,.745.745l2.074.4h9.272l8.865-1.071,9.034,1.071Z" transform="translate(-143.08 -380.075)" fill="#c0f1e1"/>
          <path id="Trazado_1014987" data-name="Trazado 1014987" d="M235.988,386.334l-.665,3.089,1.174,1.445.146,1.3a4.186,4.186,0,0,1-.874,3.109,6.574,6.574,0,0,1-5.45,2.263,6.729,6.729,0,0,1-5.188-1.96s.216-.539.135-.64a3.517,3.517,0,0,1-.9-2.81l.38-6.108Z" transform="translate(-208.932 -351.676)" fill="#d6995c"/>
          <path id="Trazado_1014988" data-name="Trazado 1014988" d="M157.769,424.457l-11.774,5.76a2.415,2.415,0,0,0-1.26,2.124v4.615h-2.42a.744.744,0,0,1-.745-.745v-3.87a5.588,5.588,0,0,1,2.984-4.942l12.048-5.894,1.167,1.024A13.056,13.056,0,0,0,157.769,424.457Z" transform="translate(-141.57 -380.551)" fill="#b3e59f"/>
          <path id="Trazado_1014989" data-name="Trazado 1014989" d="M226.279,484.539v1.9h-17.9v-1.9a2.233,2.233,0,0,1,2.234-2.234h13.431A2.233,2.233,0,0,1,226.279,484.539Z" transform="translate(-195.943 -430.033)" fill="#f0fbff"/>
          <path id="Trazado_1014990" data-name="Trazado 1014990" d="M169.62,306.594c-3.2,0-4.6.682-4.5,2.9a5.345,5.345,0,0,0,5.422,5.23h23.154a5.345,5.345,0,0,0,5.422-5.23c.1-2.221-1.3-2.9-4.5-2.9Z" transform="translate(-160.73 -287.031)" fill="#d6995c"/>
          <path id="Trazado_1014991" data-name="Trazado 1014991" d="M234.852,390.868l-.509-4.535-11.24-.309-.754,6.145a4.236,4.236,0,0,0-.03.46,4.16,4.16,0,0,0,.9,2.651q.12.151.262.3l1.026-.5a1.862,1.862,0,0,0,1.039-1.525l.031-.386a.928.928,0,0,1,1.071-.844,12.371,12.371,0,0,0,1.971.159,13.044,13.044,0,0,0,6.228-1.616Z" transform="translate(-207.287 -351.675)" fill="#ce8d57"/>
          <path id="Trazado_1014992" data-name="Trazado 1014992" d="M189.781,249.576l-.271-2.987,6.606-10.052,18.092,3.259v9.78c0,13.174-6.839,18.083-12.285,18.083C196.621,267.659,189.781,262.75,189.781,249.576Z" transform="translate(-180.586 -230.016)" fill="#e3a76f"/>
          <path id="Trazado_1014993" data-name="Trazado 1014993" d="M180.124,208.533a6.673,6.673,0,0,1,1.881-2.194c.491-.3,1.415-.808,1.415-.808a6.2,6.2,0,0,1,3.072-.144.742.742,0,0,0,.727-.245c3.743-4.495,9.3-4.242,13.7-2.357,6.513,2.79,8.789,8.92,6.643,15.062a15.99,15.99,0,0,1-1.727,3.217c-.021-.159,0-4.844-3.02-5.345-6.553-1.087-12.05-2.742-13.8-4.344a1.019,1.019,0,0,0-1.636.377,7.271,7.271,0,0,1-2.987,3.845,4.936,4.936,0,0,0-1.62,1.9l-1.362,2.533s-3.9-7.78-1.284-11.5Z" transform="translate(-172.213 -201.505)" fill="#6fbbc6"/>
          <path id="Trazado_1014994" data-name="Trazado 1014994" d="M178.785,235.105a16.769,16.769,0,0,0-1.36,3.563c-3.025-3.1-4.3-9.04-1.687-12.761a6.831,6.831,0,0,1,3.7-2.774,7.125,7.125,0,0,0-.9,1.1C176.382,227.295,176.862,231.857,178.785,235.105Z" transform="translate(-168.229 -219.108)" fill="#61aab8"/>
        </g>
      </g>
      <g id="Grupo_1194971" data-name="Grupo 1194971" transform="translate(0 0.005)">
        <path id="Trazado_1014995" data-name="Trazado 1014995" d="M84.919,24.611a16.755,16.755,0,0,0-23.571-17.5,16.749,16.749,0,0,0-27.385,0,16.756,16.756,0,0,0-23.571,17.5,16.93,16.93,0,0,0,.252,31.337,15.921,15.921,0,0,0,.934,6.595,1.4,1.4,0,0,0,2.609-.994,12.541,12.541,0,0,1-.786-4.926l.092-1.546a1.4,1.4,0,0,0-.956-1.409,14.14,14.14,0,0,1-.128-26.836,1.4,1.4,0,0,0,.919-1.609A13.962,13.962,0,0,1,33.771,10.138a1.4,1.4,0,0,0,1.879-.506,13.961,13.961,0,0,1,24.01,0,1.4,1.4,0,0,0,1.879.506A13.965,13.965,0,0,1,81.981,25.223a1.4,1.4,0,0,0,.919,1.609,14.138,14.138,0,0,1,9.618,13.4,14.419,14.419,0,0,1-9.932,13.434,1.4,1.4,0,0,0-.956,1.408A12.617,12.617,0,0,1,74.2,68.559a13.678,13.678,0,0,1-14.384-1.719,6.958,6.958,0,0,0,6.319-6.708,3.867,3.867,0,0,0-.964-2.965,4.789,4.789,0,0,0-2.856-1.271,12.154,12.154,0,0,0,.708-1.577c2.478-7.092-.5-13.845-7.411-16.806-5.9-2.529-11.465-1.6-15.067,2.45a8.08,8.08,0,0,0-7.831,3.563c-2.533,3.624-1.94,8.768.228,12.406a4.618,4.618,0,0,0-2.63,1.235,3.868,3.868,0,0,0-.964,2.965,6.854,6.854,0,0,0,6.333,6.632c-5.6,4.7-13.661,3.547-18.18-.466a1.4,1.4,0,1,0-1.854,2.088,17.748,17.748,0,0,0,11.5,4.29,16.087,16.087,0,0,0,9.75-3.2,14.931,14.931,0,0,0,3.6,4.4l-.433,3.711c-.027.014-11.315,5.514-11.371,5.543a6.963,6.963,0,0,0-3.73,6.178v4.614a1.4,1.4,0,0,0,2.792,0V89.305a4.178,4.178,0,0,1,2.221-3.7l10.4-5.068a5.426,5.426,0,0,0,.833,1.454,7.935,7.935,0,0,0,6.538,2.784,7.935,7.935,0,0,0,6.538-2.784,5.43,5.43,0,0,0,.83-1.447l5.984,2.945a1.4,1.4,0,1,0,1.233-2.505l-6.905-3.4-.432-3.708a14.853,14.853,0,0,0,3.572-4.3,16.663,16.663,0,0,0,16.8,1.514,15.142,15.142,0,0,0,9.12-15.151c6.186-2.407,10.936-8.891,10.831-15.713A16.927,16.927,0,0,0,84.919,24.611ZM63.152,59.1a1.279,1.279,0,0,1,.192.912,3.854,3.854,0,0,1-2.616,3.638,30.514,30.514,0,0,0,.61-5.047C62.5,58.685,62.969,58.905,63.152,59.1Zm-31.017.912a1.279,1.279,0,0,1,.192-.912c.186-.194.667-.418,1.861-.5a30.569,30.569,0,0,0,.613,5.067,3.856,3.856,0,0,1-2.665-3.655ZM52.1,80.244a5.287,5.287,0,0,1-4.362,1.742,5.287,5.287,0,0,1-4.362-1.741A2.8,2.8,0,0,1,42.8,78.17l.31-2.656a10.875,10.875,0,0,0,4.578,1.04,11.186,11.186,0,0,0,4.676-1.05l.311,2.667a2.805,2.805,0,0,1-.576,2.073Zm-4.411-6.482c-5.15,0-10.689-5.174-10.743-16.523.4-1.526,1.357-3.878,2.29-4.428a8.441,8.441,0,0,0,3.379-4.06c3.2,2.4,11.539,3.93,14.11,4.356,1.579.262,1.814,3.079,1.849,3.935,0,.024,0,.044,0,.064C58.569,70.253,51.732,73.762,47.691,73.762Zm9.494-23.409c-7.357-1.22-11.875-2.887-13.09-4a2.416,2.416,0,0,0-3.875.891,5.9,5.9,0,0,1-2.4,3.159,7.758,7.758,0,0,0-2.73,3.649c-1.446-2.759-1.8-6.494-.085-8.938l.017-.024A5.361,5.361,0,0,1,39.4,42.664a4.476,4.476,0,0,1,1.279.184,1.4,1.4,0,0,0,1.5-.487c3.95-5.135,9.939-3.307,12.33-2.282,5.441,2.331,7.766,7.382,6,12.943a4.449,4.449,0,0,0-3.325-2.669Z" transform="translate(0 -0.005)"/>
        <path id="Trazado_1014996" data-name="Trazado 1014996" d="M48.326,170.277a2.059,2.059,0,0,0,2.181.157l4.983-2.62,4.983,2.62a2.071,2.071,0,0,0,3-2.183l-.952-5.549,4.031-3.93a2.071,2.071,0,0,0-1.148-3.533l-5.571-.81-2.491-5.048a2.071,2.071,0,0,0-3.715,0l-2.491,5.048-5.571.81a2.071,2.071,0,0,0-1.148,3.533l4.031,3.93-.952,5.549a2.058,2.058,0,0,0,.824,2.025Zm-.908-12.483,4.5-.654a2.07,2.07,0,0,0,1.56-1.133l2.013-4.078,2.013,4.078a2.07,2.07,0,0,0,1.559,1.133l4.5.654-3.256,3.174a2.071,2.071,0,0,0-.6,1.833l.769,4.482-4.025-2.116a2.071,2.071,0,0,0-1.927,0L50.5,167.283l.769-4.482a2.07,2.07,0,0,0-.6-1.833Z" transform="translate(-35.643 -120.636)"/>
        <path id="Trazado_1014997" data-name="Trazado 1014997" d="M369.995,174.7a1.4,1.4,0,0,0,1.738-.936,8.13,8.13,0,0,0,.35-2.22A7.205,7.205,0,0,0,370,166.357a6.987,6.987,0,0,0-9.45-.519,6.933,6.933,0,0,0-4.47-1.571A7.239,7.239,0,0,0,349,171.374c-.145,7.448,10.49,12.661,10.943,12.88a1.4,1.4,0,0,0,1.231-.009,31.227,31.227,0,0,0,6.466-4.506,1.4,1.4,0,0,0-1.9-2.048,28.662,28.662,0,0,1-5.212,3.73c-2.95-1.573-8.824-5.618-8.739-9.992a4.3,4.3,0,0,1,7.662-2.744,1.4,1.4,0,0,0,1.094.53h0a1.4,1.4,0,0,0,1.094-.529,4.549,4.549,0,0,1,3.378-1.65,4.188,4.188,0,0,1,2.986,1.279,4.433,4.433,0,0,1,1.281,3.192,5.341,5.341,0,0,1-.232,1.456,1.4,1.4,0,0,0,.936,1.739Z" transform="translate(-284.032 -133.669)"/>
        <path id="Trazado_1014998" data-name="Trazado 1014998" d="M194.15,58.163a1.4,1.4,0,0,0-2.775.314,12.1,12.1,0,1,0,1.384-7.141,1.4,1.4,0,0,0,2.454,1.333,9.31,9.31,0,1,1-1.063,5.495Z" transform="translate(-155.743 -36.627)"/>
        <path id="Trazado_1014999" data-name="Trazado 1014999" d="M237.727,80.1a1.4,1.4,0,0,0-.9,2.644,8.687,8.687,0,0,0,1.4.356v.373a1.4,1.4,0,1,0,2.792,0v-.582a3.579,3.579,0,0,0,2.154-2.177,3.449,3.449,0,0,0-2.12-4.429,11.856,11.856,0,0,0-1.243-.353,2.24,2.24,0,0,1-.853-.3.535.535,0,0,1-.2-.52.7.7,0,0,1,.412-.543,1.344,1.344,0,0,1,1.345.22A1.4,1.4,0,0,0,242.36,72.7a4.39,4.39,0,0,0-1.339-.775V71.4a1.4,1.4,0,1,0-2.792,0v.542a3.665,3.665,0,0,0-2.239,2.783,3.333,3.333,0,0,0,1.21,3.079,4.5,4.5,0,0,0,1.961.845,9.215,9.215,0,0,1,.964.271.68.68,0,0,1,.413.881c-.195.561-1.139.871-2.811.3Z" transform="translate(-191.97 -56.975)"/>
        <path id="Trazado_1015000" data-name="Trazado 1015000" d="M355.019,451.7a1.4,1.4,0,0,0-.043,1.974,4.171,4.171,0,0,1,1.164,2.9v4.642a1.4,1.4,0,1,0,2.792,0v-4.642a6.95,6.95,0,0,0-1.94-4.829,1.4,1.4,0,0,0-1.974-.042Z" transform="translate(-288.581 -367.301)"/>
        <path id="Trazado_1015001" data-name="Trazado 1015001" d="M217.938,474.8H204.505a3.634,3.634,0,0,0-3.63,3.63v1.9a1.4,1.4,0,1,0,2.792,0v-1.9a.839.839,0,0,1,.838-.838h13.432a.839.839,0,0,1,.838.838v1.9a1.4,1.4,0,1,0,2.792,0v-1.9A3.634,3.634,0,0,0,217.938,474.8Z" transform="translate(-163.481 -386.418)"/>
      </g>
    </g>
  </g>
</svg>
